# xmcd
#
# Track frame offsets:
#	150
#	14335
#	34230
#	49487
#	66085
#	83765
#	95595
#	109777
#	122672
#	139465
#	153007
#	169192
#	183235
#	201347
#	214035
#	230807
#	247387
#	268782
#	279557
#	295485
#
# Disc length: 4250 seconds
#
# Revision: 0
# Processed by: cddbd v1.4PL0 Copyright (c) Steve Scherf et al.
# Submitted via: EasyCDDAExtractor 4.6.0.1
#
DISCID=39109814
DTITLE=Kris Kristofferson - The Country Collection
DYEAR=2002
DGENRE=Country
TTITLE0=Mean Old Man
TTITLE1=Shipwrecked In The Eighties
TTITLE2=They Killed Him
TTITLE3=What About Me
TTITLE4=El Gavilan (The Hawk)
TTITLE5=El Coyote
TTITLE6=Anthem 84
TTITLE7=The Heart
TTITLE8=The Old Road
TTITLE9=Love Is The Way
TTITLE10=The Eagle And the Bear
TTITLE11=Thire World Warrior
TTITLE12=Aguila Del Norte
TTITLE13=The Hero
TTITLE14=Don't Let The Bastards (Get You Down)
TTITLE15=Love Of Money
TTITLE16=Thire World War
TTITLE17=Jesse Jackson
TTITLE18=Mal Sacate
TTITLE19=Sandinista
EXTD=
EXTT0=
EXTT1=
EXTT2=
EXTT3=
EXTT4=
EXTT5=
EXTT6=
EXTT7=
EXTT8=
EXTT9=
EXTT10=
EXTT11=
EXTT12=
EXTT13=
EXTT14=
EXTT15=
EXTT16=
EXTT17=
EXTT18=
EXTT19=
PLAYORDER=
